HIERARCHY
ROOT Hips
{
	OFFSET 0.000000 88.474243 0.000000
	CHANNELS 6 Xposition Yposition Zposition Zrotation Yrotation Xrotation 
	JOINT Hips_Spine
	{
		OFFSET 0.000000 0.000000 0.000000
		CHANNELS 3 Zrotation Yrotation Xrotation
		JOINT Spine
		{
			OFFSET 0.005100 8.711998 -0.691000
			CHANNELS 3 Zrotation Yrotation Xrotation
			JOINT Spine1
			{
				OFFSET -0.009200 8.660301 -1.275000
				CHANNELS 3 Zrotation Yrotation Xrotation
				JOINT Spine2
				{
					OFFSET 0.006300 9.852501 -1.857000
					CHANNELS 3 Zrotation Yrotation Xrotation
					JOINT Spine2_Neck
					{
						OFFSET 0.000000 0.000000 0.000000
						CHANNELS 3 Zrotation Yrotation Xrotation
						JOINT Neck
						{
							OFFSET 0.016300 11.420799 -0.263300
							CHANNELS 3 Zrotation Yrotation Xrotation
							End Site #name: Head
							{
								OFFSET -0.019200 9.262405 2.362500
							}
						}
					}
					JOINT Spine2_LeftShoulder
					{
						OFFSET 0.000000 0.000000 0.000000
						CHANNELS 3 Zrotation Yrotation Xrotation
						JOINT LeftShoulder
						{
							OFFSET 5.616900 6.732201 -0.345700
							CHANNELS 3 Zrotation Yrotation Xrotation
							JOINT LeftArm
							{
								OFFSET 10.664888 -0.183372 -2.440700
								CHANNELS 3 Zrotation Yrotation Xrotation
								JOINT LeftForeArm
								{
									OFFSET 27.459126 0.000000 0.000000
									CHANNELS 3 Zrotation Yrotation Xrotation
									End Site #name: LeftHand
									{
										OFFSET 21.306858 0.000000 0.000000
									}
								}
							}
						}
					}
					JOINT Spine2_RightShoulder
					{
						OFFSET 0.000000 0.000000 0.000000
						CHANNELS 3 Zrotation Yrotation Xrotation
						JOINT RightShoulder
						{
							OFFSET -5.580300 6.737503 -0.344400
							CHANNELS 3 Zrotation Yrotation Xrotation
							JOINT RightArm
							{
								OFFSET -10.679335 -0.188484 -2.383900
								CHANNELS 3 Zrotation Yrotation Xrotation
								JOINT RightForeArm
								{
									OFFSET -27.503529 0.000000 0.000000
									CHANNELS 3 Zrotation Yrotation Xrotation
									End Site #name: RightHand
									{
										OFFSET -21.306808 0.000000 0.000000
									}
								}
							}
						}
					}
				}
			}
		}
	}
	JOINT Hips_LeftUpLeg
	{
		OFFSET 0.000000 0.000000 0.000000
		CHANNELS 3 Zrotation Yrotation Xrotation
		JOINT LeftUpLeg
		{
			OFFSET 6.857700 -6.739601 0.312100
			CHANNELS 3 Zrotation Yrotation Xrotation
			JOINT LeftLeg
			{
				OFFSET -0.367590 -34.731552 -4.572400
				CHANNELS 3 Zrotation Yrotation Xrotation
				End Site #name: LeftFoot
				{
					OFFSET 0.367590 -34.656704 -6.067400
				}
			}
		}
	}
	JOINT Hips_RightUpLeg
	{
		OFFSET 0.000000 0.000000 0.000000
		CHANNELS 3 Zrotation Yrotation Xrotation
		JOINT RightUpLeg
		{
			OFFSET -6.876100 -6.733299 0.301000
			CHANNELS 3 Zrotation Yrotation Xrotation
			JOINT RightLeg
			{
				OFFSET 0.347353 -34.795158 -4.515900
				CHANNELS 3 Zrotation Yrotation Xrotation
				End Site #name: RightFoot
				{
					OFFSET -0.347353 -34.589367 -6.070300
				}
			}
		}
	}
}
MOTION
Frames: 12
Frame Time: 0.041667
0.000000 -0.000000 0.000000 176.540515 74.859386 169.608692 0.000000 0.000000 0.000000 -0.273832 0.571345 2.261511 -0.295637 1.087135 4.521841 0.000000 0.000000 0.000000 -0.295637 1.087106 4.521841 1.799138 0.430419 5.849999 -0.295637 1.087106 4.521841 -7.691786 -10.298679 2.104032 -63.692453 16.363686 10.389787 178.642863 -70.998036 -159.454108 -0.295637 1.087106 4.521841 14.683196 10.007447 2.911314 50.477941 46.258425 -11.070578 158.640035 44.091185 141.208177 0.000000 0.000000 0.000000 4.518006 6.935543 -11.927755 -7.232658 -17.414006 20.386132 0.000000 0.000000 0.000000 -2.738976 7.507029 -7.832806 21.305445 31.592578 32.964375 
0.001569 0.009507 -1.285476 172.369964 78.391856 165.709654 0.000000 0.000000 0.000000 -0.481232 0.523160 2.234006 -0.628345 0.988375 4.465673 0.000000 0.000000 0.000000 -0.628345 0.988373 4.465676 1.550130 0.249424 5.459407 -0.628345 0.988373 4.465676 -7.583748 -10.477567 2.117886 -62.200726 15.351541 10.917654 178.709165 -70.514283 -160.087329 -0.628345 0.988373 4.465676 14.650100 10.033268 2.912717 52.178126 44.934234 -6.134218 163.160509 44.478638 148.686375 0.000000 0.000000 0.000000 3.402428 8.214102 -11.343926 -6.435834 -15.436508 20.375921 0.000000 0.000000 0.000000 -4.281897 8.557819 -9.237085 21.644916 30.716768 34.202771 
0.023260 -0.053169 -2.488876 164.231740 81.627476 157.610502 0.000000 0.000000 0.000000 -0.690919 0.491599 2.247384 -0.932611 0.914589 4.491685 0.000000 0.000000 0.000000 -0.932610 0.914601 4.491685 1.038865 0.036258 5.182840 -0.932610 0.914601 4.491685 -7.682202 -10.659315 2.158252 -60.279302 14.009685 11.573891 178.808042 -70.002003 -161.534899 -0.932610 0.914601 4.491685 14.421736 10.026553 2.883257 54.101209 42.741763 0.553286 169.283460 44.288681 158.880345 0.000000 0.000000 0.000000 2.128890 9.262204 -10.794266 -5.523460 -13.123005 20.534629 0.000000 0.000000 0.000000 -5.716104 9.020782 -10.613741 20.928319 28.494604 35.131791 
0.071595 -0.153579 -3.631561 149.254979 84.576529 142.471947 0.000000 0.000000 0.000000 -0.823356 0.474954 2.281272 -1.085327 0.865361 4.559359 0.000000 0.000000 0.000000 -1.085329 0.865359 4.559360 0.317468 -0.177482 5.158774 -1.085329 0.865359 4.559360 -7.953453 -10.774356 2.210323 -58.302805 12.334599 12.331850 178.912620 -69.697879 -163.445396 -1.085329 0.865359 4.559360 14.085635 10.028750 2.842106 55.776750 39.735733 8.070749 176.012151 43.191298 169.662915 0.000000 0.000000 0.000000 0.955048 9.940013 -10.246895 -4.380285 -10.259308 20.772115 0.000000 0.000000 0.000000 -6.821820 8.902959 -11.880268 19.165196 25.231708 35.650031 
0.138071 -0.263580 -4.682785 113.273747 86.843307 106.271434 0.000000 0.000000 0.000000 -0.852852 0.456512 2.316771 -1.047096 0.809603 4.630883 0.000000 0.000000 0.000000 -1.047096 0.809600 4.630883 -0.405063 -0.394651 5.369377 -1.047096 0.809600 4.630883 -8.224707 -10.842912 2.255622 -56.818636 10.443435 13.110984 178.998795 -69.600789 -165.299562 -1.047096 0.809600 4.630883 13.798480 10.077355 2.816694 56.770405 36.365215 15.218846 -177.723773 41.442482 178.389772 0.000000 0.000000 0.000000 0.074217 10.284309 -9.761683 -3.074026 -7.085232 21.075234 0.000000 0.000000 0.000000 -7.496774 8.333230 -13.049093 16.609402 21.323553 35.848232 
0.209515 -0.380470 -5.598449 51.981407 86.485045 44.808066 0.000000 0.000000 0.000000 -0.810861 0.416621 2.357374 -0.882910 0.711432 4.712977 0.000000 0.000000 0.000000 -0.882908 0.711455 4.712976 -0.882662 -0.645774 5.676959 -0.882908 0.711455 4.712976 -8.328448 -10.957264 2.286945 -56.208295 8.506237 13.809276 179.066886 -69.534606 -166.943215 -0.882908 0.711455 4.712976 13.678131 10.123507 2.811608 57.044306 33.162783 21.115307 -172.547376 39.788497 -176.797131 0.000000 0.000000 0.000000 -0.440358 10.458729 -9.453534 -1.751333 -3.952376 21.536930 0.000000 0.000000 0.000000 -7.706019 7.427645 -14.102724 13.407510 16.844883 35.993135 
0.274754 -0.514335 -6.360855 24.376756 83.904897 17.086782 0.000000 0.000000 0.000000 -0.747205 0.353211 2.420190 -0.692388 0.570161 4.839456 0.000000 0.000000 0.000000 -0.692387 0.570156 4.839455 -0.994355 -0.947011 5.963249 -0.692387 0.570156 4.839455 -8.248000 -11.191294 2.313381 -56.478407 6.665473 14.354680 179.133373 -69.385640 -168.604457 -0.692387 0.570156 4.839455 13.744830 10.054335 2.805749 56.951931 30.343526 25.463053 -168.560942 38.969462 -176.248821 0.000000 0.000000 0.000000 -0.673378 10.614471 -9.364271 -0.421470 -0.946363 22.272534 0.000000 0.000000 0.000000 -7.551562 6.308387 -15.188242 9.652127 11.858757 36.304990 
0.327975 -0.654106 -6.980530 13.721690 80.736166 6.303309 0.000000 0.000000 0.000000 -0.686352 0.281585 2.511715 -0.529610 0.418959 5.023049 0.000000 0.000000 0.000000 -0.529609 0.418948 5.023047 -0.805697 -1.262404 6.223069 -0.529609 0.418948 5.023047 -8.114666 -11.525266 2.348442 -57.349643 5.030556 14.745809 179.205653 -69.230829 -170.382949 -0.529609 0.418948 5.023047 13.950523 9.809443 2.779680 56.904270 27.718134 28.466097 -165.602205 39.267898 -178.992562 0.000000 0.000000 0.000000 -0.666146 10.774630 -9.453111 0.997670 2.008892 23.354978 0.000000 0.000000 0.000000 -7.111831 5.102026 -16.303103 5.386941 6.506352 36.766874 
0.374714 -0.761283 -7.476379 8.147963 77.195686 0.583285 0.000000 0.000000 0.000000 -0.620735 0.210132 2.617919 -0.391083 0.276329 5.235727 0.000000 0.000000 0.000000 -0.391084 0.276316 5.235727 -0.486946 -1.515472 6.524409 -0.391084 0.276316 5.235727 -8.064188 -11.848718 2.392414 -58.513133 3.715898 15.049764 179.263552 -69.230456 -171.865856 -0.391084 0.276316 5.235727 14.237436 9.450203 2.738055 57.077160 24.969085 30.583016 -163.488013 40.443987 176.479364 0.000000 0.000000 0.000000 -0.483426 10.891147 -9.436662 2.623920 5.134557 24.310972 0.000000 0.000000 0.000000 -6.386658 3.912533 -17.316401 0.852153 1.116610 37.275128 
0.423648 -0.814842 -7.867248 4.625069 73.291525 -3.004307 0.000000 0.000000 0.000000 -0.541938 0.122733 2.717848 -0.259987 0.109558 5.435690 0.000000 0.000000 0.000000 -0.259988 0.109528 5.435689 -0.183046 -1.643787 6.894760 -0.259988 0.109528 5.435689 -8.113801 -12.031999 2.427975 -59.787926 2.829729 15.341989 179.278584 -69.435883 -172.470744 -0.259988 0.109528 5.435689 14.557550 9.093153 2.699563 57.391157 21.968741 32.290353 -162.057129 42.028997 171.365636 0.000000 0.000000 0.000000 -0.159430 10.915717 -9.309036 4.491253 8.555486 25.090072 0.000000 0.000000 0.000000 -5.458992 2.809823 -18.214682 -3.279065 -3.617766 37.757475 
0.472307 -0.842239 -8.186401 2.224152 69.150295 -5.314410 0.000000 0.000000 0.000000 -0.466161 -0.006047 2.802950 -0.140778 -0.137325 5.605891 0.000000 0.000000 0.000000 -0.140779 -0.137317 5.605890 0.048491 -1.642634 7.266169 -0.140779 -0.137317 5.605890 -8.186748 -12.007475 2.434044 -61.069396 2.407000 15.638717 179.250000 -69.732552 -172.222766 -0.140779 -0.137317 5.605890 14.861514 8.791152 2.669121 57.671127 18.861290 33.925084 -161.090743 43.679071 166.155273 0.000000 0.000000 0.000000 0.233884 10.825192 -9.228400 6.586365 12.214020 25.913103 0.000000 0.000000 0.000000 -4.527260 1.853792 -19.176797 -6.091307 -6.760122 38.205439 
0.520537 -0.881706 -8.473602 0.600675 64.919945 -6.697847 0.000000 0.000000 0.000000 -0.423372 -0.179938 2.879665 -0.048858 -0.478137 5.759238 0.000000 0.000000 0.000000 -0.048858 -0.478118 5.759236 0.209362 -1.558214 7.543321 -0.048858 -0.478118 5.759236 -8.225791 -11.805705 2.407449 -62.211992 2.366081 15.903833 179.217838 -69.969316 -172.013887 -0.048858 -0.478118 5.759236 15.101307 8.506251 2.633248 57.794981 15.939055 35.606323 -160.286287 45.299427 160.856950 0.000000 0.000000 0.000000 0.586351 10.604121 -9.343165 8.927193 15.996252 26.998580 0.000000 0.000000 0.000000 -3.788716 1.133076 -20.429680 -6.901927 -7.579683 38.638336 
